<svg width="36" height="35" viewBox="0 0 36 35" fill="none" xmlns="http://www.w3.org/2000/svg">
<path d="M17.6206 4.84273C24.2777 4.84273 29.7389 9.95046 30.2927 16.4603L22.3748 16.4603C21.9035 14.2216 19.9182 12.5367 17.5381 12.5367C15.158 12.5367 13.1727 14.2216 12.7014 16.4603H4.94845C5.50812 9.95046 10.9693 4.84273 17.6206 4.84273ZM20.2657 16.4603C20.3836 16.7784 20.4484 17.1201 20.4484 17.4795H20.4543C20.4543 17.8389 20.3895 18.1806 20.2716 18.4987C19.8592 19.6062 18.7929 20.3898 17.544 20.3898C16.295 20.3898 15.2287 19.6003 14.8163 18.4987C14.6985 18.1806 14.6337 17.8389 14.6337 17.4795H14.6278C14.6278 17.1201 14.6926 16.7784 14.8104 16.4603C15.2228 15.3527 16.2891 14.5692 17.5381 14.5692C18.787 14.5692 19.8534 15.3586 20.2657 16.4603ZM17.4556 30.1221C10.7985 30.1221 5.33728 25.0144 4.7835 18.5046H12.7014C13.1727 20.7433 15.158 22.4282 17.5381 22.4282C19.9182 22.4282 21.9035 20.7433 22.3748 18.5046H30.1336C29.5739 25.0085 24.1127 30.1221 17.4556 30.1221ZM17.5381 2.41553C9.21962 2.41553 2.47412 9.16103 2.47412 17.4795C2.47412 25.798 9.21962 32.5435 17.5381 32.5435C25.8566 32.5435 32.6079 25.8038 32.6079 17.4795C32.6079 9.15513 25.8624 2.41553 17.5381 2.41553Z" fill="#C2C2C2"/>
<mask id="mask0_102_1259" style="mask-type:alpha" maskUnits="userSpaceOnUse" x="2" y="2" width="31" height="31">
<path d="M17.6147 4.86031C24.2718 4.86031 29.733 9.96803 30.2868 16.4779L22.369 16.4779C21.8977 14.2392 19.9123 12.5543 17.5322 12.5543C15.1522 12.5543 13.1668 14.2392 12.6955 16.4779H4.94259C5.50226 9.96803 10.9635 4.86031 17.6147 4.86031ZM20.2599 16.4779C20.3777 16.796 20.4425 17.1377 20.4425 17.4971H20.4484C20.4484 17.8564 20.3836 18.1981 20.2658 18.5163C19.8534 19.6238 18.7871 20.4074 17.5381 20.4074C16.2892 20.4074 15.2228 19.6179 14.8105 18.5163C14.6926 18.1981 14.6278 17.8564 14.6278 17.4971H14.6219C14.6219 17.1377 14.6867 16.796 14.8046 16.4779C15.217 15.3703 16.2833 14.5868 17.5322 14.5868C18.7812 14.5868 19.8475 15.3762 20.2599 16.4779ZM17.4497 30.1397C10.7926 30.1397 5.33142 25.032 4.77764 18.5221H12.6955C13.1668 20.7608 15.1522 22.4457 17.5322 22.4457C19.9123 22.4457 21.8977 20.7608 22.369 18.5221H30.1277C29.5681 25.0261 24.1069 30.1397 17.4497 30.1397ZM17.5322 2.43311C9.21376 2.43311 2.46826 9.1786 2.46826 17.4971C2.46826 25.8155 9.21376 32.561 17.5322 32.561C25.8507 32.561 32.6021 25.8214 32.6021 17.4971C32.6021 9.17271 25.8566 2.43311 17.5322 2.43311Z" fill="black"/>
</mask>
<g mask="url(#mask0_102_1259)">
<rect y="0.530273" width="39.1769" height="15.9064" fill="#00A3FF"/>
</g>
</svg>
